<mxfile host="app.diagrams.net" agent="Mozilla/5.0 (X11; Ubuntu; Linux x86_64; rv:134.0) Gecko/20100101 Firefox/134.0" version="26.0.9">
  <diagram name="Page-1" id="LMkLlNcQd01threMHlzM">
    <mxGraphModel dx="1044" dy="915" grid="1" gridSize="10" guides="1" tooltips="1" connect="1" arrows="1" fold="1" page="1" pageScale="1" pageWidth="850" pageHeight="1100" math="0" shadow="0">
      <root>
        <mxCell id="0" />
        <mxCell id="1" parent="0" />
        <mxCell id="r7YLPcHXXw2kBUCS3D6t-27" style="edgeStyle=orthogonalEdgeStyle;rounded=0;orthogonalLoop=1;jettySize=auto;html=1;" edge="1" parent="1" source="r7YLPcHXXw2kBUCS3D6t-1">
          <mxGeometry relative="1" as="geometry">
            <mxPoint x="400" y="130" as="targetPoint" />
          </mxGeometry>
        </mxCell>
        <mxCell id="r7YLPcHXXw2kBUCS3D6t-1" value="Start" style="ellipse;whiteSpace=wrap;html=1;" vertex="1" parent="1">
          <mxGeometry x="340" y="10" width="120" height="80" as="geometry" />
        </mxCell>
        <mxCell id="r7YLPcHXXw2kBUCS3D6t-2" value="somma = 0 " style="rounded=0;whiteSpace=wrap;html=1;" vertex="1" parent="1">
          <mxGeometry x="340" y="150" width="120" height="60" as="geometry" />
        </mxCell>
        <mxCell id="r7YLPcHXXw2kBUCS3D6t-36" style="edgeStyle=orthogonalEdgeStyle;rounded=0;orthogonalLoop=1;jettySize=auto;html=1;entryX=0.5;entryY=0;entryDx=0;entryDy=0;" edge="1" parent="1" source="r7YLPcHXXw2kBUCS3D6t-28" target="r7YLPcHXXw2kBUCS3D6t-35">
          <mxGeometry relative="1" as="geometry" />
        </mxCell>
        <mxCell id="r7YLPcHXXw2kBUCS3D6t-28" value="Read N" style="shape=parallelogram;perimeter=parallelogramPerimeter;whiteSpace=wrap;html=1;fixedSize=1;" vertex="1" parent="1">
          <mxGeometry x="330" y="280" width="120" height="60" as="geometry" />
        </mxCell>
        <mxCell id="r7YLPcHXXw2kBUCS3D6t-29" style="edgeStyle=orthogonalEdgeStyle;rounded=0;orthogonalLoop=1;jettySize=auto;html=1;entryX=0.592;entryY=0;entryDx=0;entryDy=0;entryPerimeter=0;" edge="1" parent="1" source="r7YLPcHXXw2kBUCS3D6t-2" target="r7YLPcHXXw2kBUCS3D6t-28">
          <mxGeometry relative="1" as="geometry" />
        </mxCell>
        <mxCell id="r7YLPcHXXw2kBUCS3D6t-37" style="edgeStyle=orthogonalEdgeStyle;rounded=0;orthogonalLoop=1;jettySize=auto;html=1;" edge="1" parent="1" source="r7YLPcHXXw2kBUCS3D6t-35">
          <mxGeometry relative="1" as="geometry">
            <mxPoint x="390" y="520" as="targetPoint" />
          </mxGeometry>
        </mxCell>
        <mxCell id="r7YLPcHXXw2kBUCS3D6t-38" value="TRUE" style="edgeLabel;html=1;align=center;verticalAlign=middle;resizable=0;points=[];" vertex="1" connectable="0" parent="r7YLPcHXXw2kBUCS3D6t-37">
          <mxGeometry x="-0.3581" y="-1" relative="1" as="geometry">
            <mxPoint as="offset" />
          </mxGeometry>
        </mxCell>
        <mxCell id="r7YLPcHXXw2kBUCS3D6t-55" style="edgeStyle=orthogonalEdgeStyle;rounded=0;orthogonalLoop=1;jettySize=auto;html=1;" edge="1" parent="1" source="r7YLPcHXXw2kBUCS3D6t-35">
          <mxGeometry relative="1" as="geometry">
            <mxPoint x="210" y="530" as="targetPoint" />
          </mxGeometry>
        </mxCell>
        <mxCell id="r7YLPcHXXw2kBUCS3D6t-56" value="FALSE" style="edgeLabel;html=1;align=center;verticalAlign=middle;resizable=0;points=[];" vertex="1" connectable="0" parent="r7YLPcHXXw2kBUCS3D6t-55">
          <mxGeometry x="-0.2363" y="3" relative="1" as="geometry">
            <mxPoint as="offset" />
          </mxGeometry>
        </mxCell>
        <mxCell id="r7YLPcHXXw2kBUCS3D6t-35" value="N &amp;gt; 0" style="rhombus;whiteSpace=wrap;html=1;" vertex="1" parent="1">
          <mxGeometry x="330" y="400" width="120" height="80" as="geometry" />
        </mxCell>
        <mxCell id="r7YLPcHXXw2kBUCS3D6t-40" style="edgeStyle=orthogonalEdgeStyle;rounded=0;orthogonalLoop=1;jettySize=auto;html=1;" edge="1" parent="1" source="r7YLPcHXXw2kBUCS3D6t-39">
          <mxGeometry relative="1" as="geometry">
            <mxPoint x="390" y="680" as="targetPoint" />
          </mxGeometry>
        </mxCell>
        <mxCell id="r7YLPcHXXw2kBUCS3D6t-41" value="TRUE" style="edgeLabel;html=1;align=center;verticalAlign=middle;resizable=0;points=[];" vertex="1" connectable="0" parent="r7YLPcHXXw2kBUCS3D6t-40">
          <mxGeometry x="-0.3192" y="-4" relative="1" as="geometry">
            <mxPoint as="offset" />
          </mxGeometry>
        </mxCell>
        <mxCell id="r7YLPcHXXw2kBUCS3D6t-48" style="edgeStyle=orthogonalEdgeStyle;rounded=0;orthogonalLoop=1;jettySize=auto;html=1;" edge="1" parent="1" source="r7YLPcHXXw2kBUCS3D6t-39">
          <mxGeometry relative="1" as="geometry">
            <mxPoint x="250" y="570" as="targetPoint" />
          </mxGeometry>
        </mxCell>
        <mxCell id="r7YLPcHXXw2kBUCS3D6t-53" value="FALSE" style="edgeLabel;html=1;align=center;verticalAlign=middle;resizable=0;points=[];" vertex="1" connectable="0" parent="r7YLPcHXXw2kBUCS3D6t-48">
          <mxGeometry x="-0.0056" y="5" relative="1" as="geometry">
            <mxPoint as="offset" />
          </mxGeometry>
        </mxCell>
        <mxCell id="r7YLPcHXXw2kBUCS3D6t-39" value="N &amp;gt; 0 " style="rhombus;whiteSpace=wrap;html=1;" vertex="1" parent="1">
          <mxGeometry x="340" y="530" width="100" height="80" as="geometry" />
        </mxCell>
        <mxCell id="r7YLPcHXXw2kBUCS3D6t-45" value="" style="edgeStyle=orthogonalEdgeStyle;rounded=0;orthogonalLoop=1;jettySize=auto;html=1;" edge="1" parent="1" source="r7YLPcHXXw2kBUCS3D6t-42" target="r7YLPcHXXw2kBUCS3D6t-43">
          <mxGeometry relative="1" as="geometry" />
        </mxCell>
        <mxCell id="r7YLPcHXXw2kBUCS3D6t-42" value="somma+= N * N" style="rounded=0;whiteSpace=wrap;html=1;" vertex="1" parent="1">
          <mxGeometry x="330" y="690" width="120" height="60" as="geometry" />
        </mxCell>
        <mxCell id="r7YLPcHXXw2kBUCS3D6t-47" style="edgeStyle=orthogonalEdgeStyle;rounded=0;orthogonalLoop=1;jettySize=auto;html=1;entryX=1;entryY=0.5;entryDx=0;entryDy=0;" edge="1" parent="1" source="r7YLPcHXXw2kBUCS3D6t-43" target="r7YLPcHXXw2kBUCS3D6t-39">
          <mxGeometry relative="1" as="geometry">
            <mxPoint x="610" y="590" as="targetPoint" />
            <Array as="points">
              <mxPoint x="460" y="800" />
              <mxPoint x="460" y="570" />
            </Array>
          </mxGeometry>
        </mxCell>
        <mxCell id="r7YLPcHXXw2kBUCS3D6t-43" value="N-=1" style="rounded=0;whiteSpace=wrap;html=1;" vertex="1" parent="1">
          <mxGeometry x="330" y="790" width="120" height="60" as="geometry" />
        </mxCell>
        <mxCell id="r7YLPcHXXw2kBUCS3D6t-52" style="edgeStyle=orthogonalEdgeStyle;rounded=0;orthogonalLoop=1;jettySize=auto;html=1;" edge="1" parent="1" source="r7YLPcHXXw2kBUCS3D6t-50" target="r7YLPcHXXw2kBUCS3D6t-51">
          <mxGeometry relative="1" as="geometry" />
        </mxCell>
        <mxCell id="r7YLPcHXXw2kBUCS3D6t-50" value="Write &quot;errore&quot;" style="shape=parallelogram;perimeter=parallelogramPerimeter;whiteSpace=wrap;html=1;fixedSize=1;" vertex="1" parent="1">
          <mxGeometry x="140" y="540" width="120" height="60" as="geometry" />
        </mxCell>
        <mxCell id="r7YLPcHXXw2kBUCS3D6t-51" value="END" style="ellipse;whiteSpace=wrap;html=1;" vertex="1" parent="1">
          <mxGeometry x="130" y="650" width="120" height="80" as="geometry" />
        </mxCell>
      </root>
    </mxGraphModel>
  </diagram>
</mxfile>
